Coordinates
version=1
nRows=27
nColumns=38
inDegrees=no

Units are S.I. units (second, meters, Newtons, ...)
If the header above contains a line with 'inDegrees', this indicates whether rotational values are in degrees (yes) or radians (no).

endheader
time	pelvis_tilt	pelvis_list	pelvis_rotation	pelvis_tx	pelvis_ty	pelvis_tz	hip_flexion_r	hip_adduction_r	hip_rotation_r	knee_angle_r	ankle_angle_r	subtalar_angle_r	mtp_angle_r	hip_flexion_l	hip_adduction_l	hip_rotation_l	knee_angle_l	ankle_angle_l	subtalar_angle_l	mtp_angle_l	lumbar_extension	lumbar_bending	lumbar_rotation	arm_flex_r	arm_add_r	arm_rot_r	elbow_flex_r	pro_sup_r	wrist_flex_r	wrist_dev_r	arm_flex_l	arm_add_l	arm_rot_l	elbow_flex_l	pro_sup_l	wrist_flex_l	wrist_dev_l
0	-0.293753	1.20366	-1.16014	0.607859	2.06693	1.01896	-0.00237427	0.168918	-0.239261	0.509928	-0.211667	0	0	-0.147422	-0.193216	-0.0741798	1.27994	-0.0188172	0	0	-0.681147	0.324954	0.516676	-0.474824	-0.483986	-0.590082	1.99363	0.419899	0	0	0.700039	-0.277333	0.707115	1.00643	0.619308	0	0
0.01	-0.289756	1.21212	-1.16095	0.607258	2.05973	1.0197	-0.00200962	0.166359	-0.238448	0.5118	-0.205716	0	0	-0.111171	-0.173758	-0.0437097	1.29392	-0.00866915	0	0	-0.665004	0.323479	0.495951	-0.447713	-0.492699	-0.564577	1.97264	0.418775	0	0	0.697502	-0.283419	0.704377	0.995485	0.622775	0	0
0.02	-0.290483	1.21539	-1.15913	0.606764	2.05161	1.02058	-0.0100222	0.167618	-0.240676	0.506867	-0.200415	0	0	-0.0837026	-0.163056	-0.0286898	1.3099	-0.008176	0	0	-0.656404	0.323025	0.475853	-0.420919	-0.502921	-0.536642	1.95548	0.418145	0	0	0.677847	-0.239163	0.627216	0.952277	0.565419	0	0
0.03	-0.279968	1.22187	-1.17081	0.60587	2.04322	1.02236	-0.0178565	0.163966	-0.240338	0.499772	-0.19702	0	0	-0.0570122	-0.145974	-0.0108147	1.29618	0.00704435	0	0	-0.644999	0.32075	0.460873	-0.398316	-0.50728	-0.514129	1.93886	0.419333	0	0	0.680288	-0.298631	0.683245	0.987544	0.623163	0	0
0.04	-0.276054	1.22248	-1.17544	0.605391	2.03484	1.02362	-0.0306939	0.164344	-0.243867	0.491917	-0.19312	0	0	-0.0356136	-0.138062	-0.00312685	1.29156	0.0126589	0	0	-0.641331	0.318669	0.443694	-0.37366	-0.515988	-0.487948	1.92439	0.419116	0	0	0.661145	-0.254361	0.604775	0.947442	0.565758	0	0
0.05	-0.278001	1.22889	-1.17702	0.604902	2.02589	1.02464	-0.0366712	0.16407	-0.244511	0.485611	-0.189201	0	0	-0.00949709	-0.129956	0.000839593	1.28297	0.0173227	0	0	-0.629046	0.320017	0.435655	-0.358783	-0.519052	-0.472046	1.91267	0.425066	0	0	0.661343	-0.311419	0.661364	0.984627	0.623872	0	0
0.06	-0.275908	1.23132	-1.18245	0.604378	2.01719	1.02574	-0.0473628	0.16393	-0.244989	0.478749	-0.186545	0	0	0.0114397	-0.123326	0.00233368	1.27126	0.0202107	0	0	-0.623859	0.318401	0.427737	-0.342166	-0.51846	-0.456376	1.90227	0.436693	0	0	0.654097	-0.315348	0.652505	0.983985	0.619841	0	0
0.07	-0.272138	1.23342	-1.19006	0.603764	2.00847	1.02683	-0.0588306	0.16348	-0.244256	0.471769	-0.182454	0	0	0.0310446	-0.117012	0.00144406	1.25657	0.0203282	0	0	-0.618951	0.316303	0.41773	-0.325726	-0.527707	-0.437478	1.89254	0.427113	0	0	0.644911	-0.321849	0.640889	0.985158	0.620864	0	0
0.08	-0.268018	1.23504	-1.19891	0.603174	1.99964	1.02789	-0.0709197	0.162696	-0.242926	0.465124	-0.179277	0	0	0.0490085	-0.111474	-0.00237051	1.23951	0.0205043	0	0	-0.615185	0.313546	0.411409	-0.310448	-0.527177	-0.422165	1.88333	0.437597	0	0	0.638021	-0.327133	0.633028	0.985185	0.624694	0	0
0.09	-0.262605	1.23651	-1.2092	0.602639	1.99073	1.0289	-0.0835367	0.161332	-0.241197	0.458304	-0.175596	0	0	0.0655773	-0.106008	-0.00741442	1.2203	0.0205032	0	0	-0.611444	0.310322	0.404933	-0.296382	-0.529611	-0.407652	1.87482	0.445159	0	0	0.630113	-0.331229	0.622306	0.985486	0.626176	0	0
0.1	-0.256734	1.23742	-1.2194	0.60226	1.98179	1.02981	-0.0969386	0.159719	-0.239901	0.451183	-0.172056	0	0	0.0810353	-0.101264	-0.013509	1.19952	0.0206685	0	0	-0.608094	0.307478	0.398723	-0.283468	-0.532368	-0.393928	1.86714	0.44986	0	0	0.622976	-0.335095	0.612589	0.985585	0.628262	0	0
0.11	-0.251635	1.23793	-1.22852	0.601968	1.97279	1.0306	-0.110731	0.15829	-0.239073	0.443531	-0.168836	0	0	0.095491	-0.0976781	-0.020213	1.17713	0.0205423	0	0	-0.604829	0.305131	0.393059	-0.271832	-0.535749	-0.380796	1.85992	0.452833	0	0	0.616074	-0.337902	0.602493	0.985543	0.628514	0	0
0.12	-0.246514	1.23833	-1.23746	0.601746	1.96375	1.03129	-0.124735	0.157133	-0.2372	0.435151	-0.165752	0	0	0.108829	-0.0945362	-0.0266189	1.1527	0.0205981	0	0	-0.601537	0.302987	0.387645	-0.260822	-0.539477	-0.367955	1.85302	0.454498	0	0	0.610113	-0.340857	0.594195	0.985042	0.630586	0	0
0.13	-0.239308	1.23831	-1.24774	0.601608	1.95474	1.03193	-0.139046	0.155765	-0.236526	0.42636	-0.162497	0	0	0.120578	-0.0911207	-0.0322021	1.12556	0.0201702	0	0	-0.598657	0.300536	0.381204	-0.249061	-0.543443	-0.354289	1.84577	0.454666	0	0	0.603551	-0.343219	0.58353	0.985185	0.630105	0	0
0.14	-0.231976	1.23744	-1.2568	0.601574	1.94581	1.03247	-0.153927	0.155114	-0.236834	0.417641	-0.158636	0	0	0.131058	-0.0880058	-0.0357364	1.09635	0.0178999	0	0	-0.596273	0.298815	0.373045	-0.235626	-0.547644	-0.339111	1.83766	0.459644	0	0	0.596984	-0.346441	0.572258	0.986137	0.631964	0	0
0.15	-0.224553	1.23522	-1.26437	0.601688	1.93701	1.03292	-0.170249	0.155211	-0.237805	0.408456	-0.154003	0	0	0.13978	-0.0853478	-0.0369705	1.06513	0.0146524	0	0	-0.595279	0.298052	0.364356	-0.222679	-0.553996	-0.323557	1.83043	0.447675	0	0	0.591702	-0.350093	0.562565	0.987603	0.635018	0	0
0.16	-0.218742	1.23449	-1.26997	0.601904	1.92806	1.03314	-0.18468	0.15562	-0.2383	0.40007	-0.14945	0	0	0.149025	-0.0830502	-0.0369601	1.03247	0.0116158	0	0	-0.592647	0.297311	0.357311	-0.212635	-0.557267	-0.312506	1.82416	0.446886	0	0	0.587806	-0.352468	0.555567	0.988278	0.636474	0	0
0.17	-0.215256	1.23562	-1.27324	0.602237	1.91889	1.03314	-0.196837	0.155887	-0.237278	0.392983	-0.146945	0	0	0.159248	-0.081576	-0.0367307	0.998582	0.00924263	0	0	-0.588121	0.296494	0.353958	-0.208256	-0.557667	-0.30874	1.82004	0.4514	0	0	0.587262	-0.352888	0.555108	0.986913	0.633385	0	0
0.18	-0.209528	1.23553	-1.2776	0.602705	1.90972	1.03313	-0.210767	0.155922	-0.236567	0.385003	-0.142832	0	0	0.166808	-0.079804	-0.0348114	0.962654	0.00439911	0	0	-0.584154	0.296057	0.346228	-0.199067	-0.560311	-0.298652	1.8135	0.450168	0	0	0.584296	-0.355154	0.549994	0.986638	0.636652	0	0
0.19	-0.204613	1.23581	-1.28093	0.603215	1.90046	1.03294	-0.224175	0.156376	-0.2348	0.377156	-0.138833	0	0	0.173889	-0.0786206	-0.0329416	0.925647	-0.000307752	0	0	-0.579663	0.295659	0.33934	-0.191375	-0.56203	-0.290485	1.8075	0.449335	0	0	0.582505	-0.356931	0.546845	0.985576	0.641031	0	0
0.2	-0.199902	1.2362	-1.28391	0.603775	1.89113	1.03261	-0.237358	0.156858	-0.232645	0.369368	-0.134014	0	0	0.180167	-0.077971	-0.0317186	0.887828	-0.00569508	0	0	-0.574886	0.295359	0.33231	-0.183613	-0.563611	-0.282239	1.80133	0.448443	0	0	0.580384	-0.357303	0.541744	0.98424	0.642655	0	0
0.21	-0.195028	1.23642	-1.28718	0.60437	1.88174	1.03213	-0.250682	0.157069	-0.229922	0.361871	-0.128266	0	0	0.18512	-0.0776194	-0.0312186	0.848423	-0.012333	0	0	-0.570198	0.29503	0.32498	-0.175292	-0.565482	-0.273198	1.79487	0.44749	0	0	0.57761	-0.357993	0.535495	0.983534	0.643079	0	0
0.22	-0.191173	1.23669	-1.28998	0.60499	1.87225	1.03148	-0.263728	0.157302	-0.226423	0.355141	-0.122281	0	0	0.189199	-0.0781275	-0.0321955	0.808385	-0.0186035	0	0	-0.5656	0.29477	0.318798	-0.16804	-0.567359	-0.265276	1.78919	0.446654	0	0	0.575656	-0.358713	0.531005	0.982526	0.645332	0	0
0.23	-0.191634	1.23689	-1.28885	0.60568	1.86259	1.03052	-0.276764	0.159036	-0.222315	0.348145	-0.113705	0	0	0.193346	-0.0797171	-0.0315121	0.770169	-0.0245053	0	0	-0.560486	0.295887	0.312785	-0.160379	-0.569103	-0.256915	1.7835	0.451387	0	0	0.572138	-0.359762	0.524295	0.982698	0.649648	0	0
0.24	-0.188331	1.23646	-1.29301	0.606234	1.8528	1.02971	-0.291036	0.159012	-0.21716	0.341223	-0.10869	0	0	0.195001	-0.0845645	-0.0437258	0.730116	-0.0318473	0	0	-0.557149	0.294734	0.309429	-0.154875	-0.570638	-0.250972	1.77885	0.447767	0	0	0.570382	-0.3606	0.520741	0.982595	0.649991	0	0
0.25	-0.189458	1.23559	-1.29318	0.606861	1.84283	1.02863	-0.305646	0.160214	-0.211538	0.334201	-0.103001	0	0	0.196852	-0.0907253	-0.0539492	0.693803	-0.0387481	0	0	-0.55369	0.295252	0.306502	-0.149146	-0.572552	-0.244506	1.77445	0.445532	0	0	0.568076	-0.361347	0.516862	0.982464	0.65161	0	0
0.26	-0.143739	1.27034	-1.34802	0.608155	1.83152	1.02288	-0.171498	0.06142	-0.399179	0.638756	-0.0673324	0	0	0.232357	-0.0681437	-0.0664631	0.665965	-0.0420967	0	0	-0.511344	0.270654	0.300331	-0.152405	-0.571047	-0.240018	1.76917	0.444658	0	0	0.560647	-0.361971	0.514971	0.980941	0.652564	0	0
